<mxfile host="app.diagrams.net" modified="2023-05-01T09:50:23.524Z" agent="Mozilla/5.0 (Windows NT 10.0; Win64; x64) AppleWebKit/537.36 (KHTML, like Gecko) Chrome/112.0.0.0 Safari/537.36" etag="oS6j-RtYgZGSl7CqPFGO" version="21.2.3" type="google">
  <diagram name="Страница 1" id="FvsBsrC5z9XoTWZfVfOQ">
    <mxGraphModel dx="1434" dy="788" grid="1" gridSize="10" guides="1" tooltips="1" connect="1" arrows="1" fold="1" page="1" pageScale="1" pageWidth="827" pageHeight="1169" math="0" shadow="0">
      <root>
        <mxCell id="0" />
        <mxCell id="1" parent="0" />
        <mxCell id="S4JOhIEXXyiDOe3BqFBM-4" value="" style="edgeStyle=orthogonalEdgeStyle;rounded=0;orthogonalLoop=1;jettySize=auto;html=1;" edge="1" parent="1" target="S4JOhIEXXyiDOe3BqFBM-2">
          <mxGeometry relative="1" as="geometry">
            <mxPoint x="400" y="140" as="sourcePoint" />
          </mxGeometry>
        </mxCell>
        <mxCell id="S4JOhIEXXyiDOe3BqFBM-6" value="" style="edgeStyle=orthogonalEdgeStyle;rounded=0;orthogonalLoop=1;jettySize=auto;html=1;" edge="1" parent="1" source="S4JOhIEXXyiDOe3BqFBM-2" target="S4JOhIEXXyiDOe3BqFBM-5">
          <mxGeometry relative="1" as="geometry" />
        </mxCell>
        <mxCell id="S4JOhIEXXyiDOe3BqFBM-2" value="stringArray[size]" style="shape=parallelogram;perimeter=parallelogramPerimeter;whiteSpace=wrap;html=1;fixedSize=1;" vertex="1" parent="1">
          <mxGeometry x="340" y="170" width="120" height="60" as="geometry" />
        </mxCell>
        <mxCell id="S4JOhIEXXyiDOe3BqFBM-10" value="" style="edgeStyle=orthogonalEdgeStyle;rounded=0;orthogonalLoop=1;jettySize=auto;html=1;" edge="1" parent="1" source="S4JOhIEXXyiDOe3BqFBM-5" target="S4JOhIEXXyiDOe3BqFBM-9">
          <mxGeometry relative="1" as="geometry" />
        </mxCell>
        <mxCell id="S4JOhIEXXyiDOe3BqFBM-5" value="i = 0&lt;br&gt;j=0&lt;br&gt;k=0" style="rounded=0;whiteSpace=wrap;html=1;" vertex="1" parent="1">
          <mxGeometry x="340" y="260" width="120" height="60" as="geometry" />
        </mxCell>
        <mxCell id="S4JOhIEXXyiDOe3BqFBM-8" value="" style="edgeStyle=orthogonalEdgeStyle;rounded=0;orthogonalLoop=1;jettySize=auto;html=1;" edge="1" parent="1" source="S4JOhIEXXyiDOe3BqFBM-7" target="S4JOhIEXXyiDOe3BqFBM-2">
          <mxGeometry relative="1" as="geometry" />
        </mxCell>
        <mxCell id="S4JOhIEXXyiDOe3BqFBM-7" value="Start" style="rounded=1;whiteSpace=wrap;html=1;" vertex="1" parent="1">
          <mxGeometry x="340" y="80" width="120" height="60" as="geometry" />
        </mxCell>
        <mxCell id="S4JOhIEXXyiDOe3BqFBM-13" value="" style="edgeStyle=orthogonalEdgeStyle;rounded=0;orthogonalLoop=1;jettySize=auto;html=1;" edge="1" parent="1" source="S4JOhIEXXyiDOe3BqFBM-9" target="S4JOhIEXXyiDOe3BqFBM-12">
          <mxGeometry relative="1" as="geometry" />
        </mxCell>
        <mxCell id="S4JOhIEXXyiDOe3BqFBM-29" style="edgeStyle=orthogonalEdgeStyle;rounded=0;orthogonalLoop=1;jettySize=auto;html=1;" edge="1" parent="1" source="S4JOhIEXXyiDOe3BqFBM-9" target="S4JOhIEXXyiDOe3BqFBM-28">
          <mxGeometry relative="1" as="geometry" />
        </mxCell>
        <mxCell id="S4JOhIEXXyiDOe3BqFBM-9" value="i&amp;lt;size" style="rhombus;whiteSpace=wrap;html=1;" vertex="1" parent="1">
          <mxGeometry x="360" y="360" width="80" height="80" as="geometry" />
        </mxCell>
        <mxCell id="S4JOhIEXXyiDOe3BqFBM-16" value="" style="edgeStyle=orthogonalEdgeStyle;rounded=0;orthogonalLoop=1;jettySize=auto;html=1;" edge="1" parent="1" source="S4JOhIEXXyiDOe3BqFBM-12" target="S4JOhIEXXyiDOe3BqFBM-15">
          <mxGeometry relative="1" as="geometry" />
        </mxCell>
        <mxCell id="S4JOhIEXXyiDOe3BqFBM-12" value="charArr = stringArray[i]&lt;br&gt;qtySymbols=charArr.length" style="rounded=0;whiteSpace=wrap;html=1;" vertex="1" parent="1">
          <mxGeometry x="300" y="480" width="200" height="50" as="geometry" />
        </mxCell>
        <mxCell id="S4JOhIEXXyiDOe3BqFBM-14" value="Yes" style="text;html=1;align=center;verticalAlign=middle;resizable=0;points=[];autosize=1;strokeColor=none;fillColor=none;" vertex="1" parent="1">
          <mxGeometry x="394" y="440" width="40" height="30" as="geometry" />
        </mxCell>
        <mxCell id="S4JOhIEXXyiDOe3BqFBM-19" value="" style="edgeStyle=orthogonalEdgeStyle;rounded=0;orthogonalLoop=1;jettySize=auto;html=1;" edge="1" parent="1" source="S4JOhIEXXyiDOe3BqFBM-15" target="S4JOhIEXXyiDOe3BqFBM-17">
          <mxGeometry relative="1" as="geometry" />
        </mxCell>
        <mxCell id="S4JOhIEXXyiDOe3BqFBM-22" value="" style="edgeStyle=orthogonalEdgeStyle;rounded=0;orthogonalLoop=1;jettySize=auto;html=1;" edge="1" parent="1" source="S4JOhIEXXyiDOe3BqFBM-15" target="S4JOhIEXXyiDOe3BqFBM-18">
          <mxGeometry relative="1" as="geometry" />
        </mxCell>
        <mxCell id="S4JOhIEXXyiDOe3BqFBM-15" value="qtySymbols&amp;lt;=3" style="rhombus;whiteSpace=wrap;html=1;rounded=0;" vertex="1" parent="1">
          <mxGeometry x="350" y="560" width="100" height="100" as="geometry" />
        </mxCell>
        <mxCell id="S4JOhIEXXyiDOe3BqFBM-25" style="edgeStyle=orthogonalEdgeStyle;rounded=0;orthogonalLoop=1;jettySize=auto;html=1;exitX=0;exitY=0.5;exitDx=0;exitDy=0;entryX=0.5;entryY=1;entryDx=0;entryDy=0;" edge="1" parent="1" source="S4JOhIEXXyiDOe3BqFBM-17" target="S4JOhIEXXyiDOe3BqFBM-24">
          <mxGeometry relative="1" as="geometry" />
        </mxCell>
        <mxCell id="S4JOhIEXXyiDOe3BqFBM-17" value="stringArray[i] = String.Empty" style="rounded=0;whiteSpace=wrap;html=1;" vertex="1" parent="1">
          <mxGeometry x="310" y="700" width="180" height="40" as="geometry" />
        </mxCell>
        <mxCell id="S4JOhIEXXyiDOe3BqFBM-26" value="" style="edgeStyle=orthogonalEdgeStyle;rounded=0;orthogonalLoop=1;jettySize=auto;html=1;" edge="1" parent="1" source="S4JOhIEXXyiDOe3BqFBM-18" target="S4JOhIEXXyiDOe3BqFBM-24">
          <mxGeometry relative="1" as="geometry" />
        </mxCell>
        <mxCell id="S4JOhIEXXyiDOe3BqFBM-18" value="j++" style="rounded=0;whiteSpace=wrap;html=1;" vertex="1" parent="1">
          <mxGeometry x="190" y="580" width="120" height="60" as="geometry" />
        </mxCell>
        <mxCell id="S4JOhIEXXyiDOe3BqFBM-20" value="No" style="text;html=1;align=center;verticalAlign=middle;resizable=0;points=[];autosize=1;strokeColor=none;fillColor=none;" vertex="1" parent="1">
          <mxGeometry x="394" y="660" width="40" height="30" as="geometry" />
        </mxCell>
        <mxCell id="S4JOhIEXXyiDOe3BqFBM-21" value="&lt;span style=&quot;color: rgb(44, 45, 48); font-family: Roboto, &amp;quot;San Francisco&amp;quot;, &amp;quot;Helvetica Neue&amp;quot;, Helvetica, Arial; font-size: 15px; font-style: normal; font-variant-ligatures: normal; font-variant-caps: normal; font-weight: 400; letter-spacing: normal; orphans: 2; text-align: start; text-indent: 0px; text-transform: none; widows: 2; word-spacing: 0px; -webkit-text-stroke-width: 0px; background-color: rgb(255, 255, 255); text-decoration-thickness: initial; text-decoration-style: initial; text-decoration-color: initial; float: none; display: inline !important;&quot;&gt;Написать программу, которая из имеющегося массива строк формирует новый массив из строк, длина которых меньше, либо равна 3 символам.&lt;/span&gt;" style="text;whiteSpace=wrap;html=1;" vertex="1" parent="1">
          <mxGeometry x="110" y="10" width="560" height="60" as="geometry" />
        </mxCell>
        <mxCell id="S4JOhIEXXyiDOe3BqFBM-23" value="Yes" style="text;html=1;align=center;verticalAlign=middle;resizable=0;points=[];autosize=1;strokeColor=none;fillColor=none;" vertex="1" parent="1">
          <mxGeometry x="310" y="580" width="40" height="30" as="geometry" />
        </mxCell>
        <mxCell id="S4JOhIEXXyiDOe3BqFBM-27" style="edgeStyle=orthogonalEdgeStyle;rounded=0;orthogonalLoop=1;jettySize=auto;html=1;entryX=0;entryY=0.5;entryDx=0;entryDy=0;" edge="1" parent="1" source="S4JOhIEXXyiDOe3BqFBM-24" target="S4JOhIEXXyiDOe3BqFBM-9">
          <mxGeometry relative="1" as="geometry">
            <Array as="points">
              <mxPoint x="100" y="400" />
            </Array>
          </mxGeometry>
        </mxCell>
        <mxCell id="S4JOhIEXXyiDOe3BqFBM-24" value="i++" style="rounded=0;whiteSpace=wrap;html=1;" vertex="1" parent="1">
          <mxGeometry x="40" y="580" width="120" height="60" as="geometry" />
        </mxCell>
        <mxCell id="S4JOhIEXXyiDOe3BqFBM-50" value="" style="edgeStyle=orthogonalEdgeStyle;rounded=0;orthogonalLoop=1;jettySize=auto;html=1;" edge="1" parent="1" source="S4JOhIEXXyiDOe3BqFBM-28" target="S4JOhIEXXyiDOe3BqFBM-33">
          <mxGeometry relative="1" as="geometry" />
        </mxCell>
        <mxCell id="S4JOhIEXXyiDOe3BqFBM-28" value="stringRes[j]&lt;br&gt;i=0" style="rounded=0;whiteSpace=wrap;html=1;" vertex="1" parent="1">
          <mxGeometry x="480" y="370" width="120" height="60" as="geometry" />
        </mxCell>
        <mxCell id="S4JOhIEXXyiDOe3BqFBM-30" value="No" style="text;html=1;align=center;verticalAlign=middle;resizable=0;points=[];autosize=1;strokeColor=none;fillColor=none;" vertex="1" parent="1">
          <mxGeometry x="440" y="370" width="40" height="30" as="geometry" />
        </mxCell>
        <mxCell id="S4JOhIEXXyiDOe3BqFBM-51" value="" style="edgeStyle=orthogonalEdgeStyle;rounded=0;orthogonalLoop=1;jettySize=auto;html=1;" edge="1" parent="1" source="S4JOhIEXXyiDOe3BqFBM-33" target="S4JOhIEXXyiDOe3BqFBM-37">
          <mxGeometry relative="1" as="geometry" />
        </mxCell>
        <mxCell id="S4JOhIEXXyiDOe3BqFBM-54" style="edgeStyle=orthogonalEdgeStyle;rounded=0;orthogonalLoop=1;jettySize=auto;html=1;entryX=0;entryY=0.5;entryDx=0;entryDy=0;" edge="1" parent="1" source="S4JOhIEXXyiDOe3BqFBM-33" target="S4JOhIEXXyiDOe3BqFBM-52">
          <mxGeometry relative="1" as="geometry">
            <Array as="points">
              <mxPoint x="680" y="270" />
            </Array>
          </mxGeometry>
        </mxCell>
        <mxCell id="S4JOhIEXXyiDOe3BqFBM-33" value="i&amp;lt;size" style="rhombus;whiteSpace=wrap;html=1;" vertex="1" parent="1">
          <mxGeometry x="640" y="360" width="80" height="80" as="geometry" />
        </mxCell>
        <mxCell id="S4JOhIEXXyiDOe3BqFBM-40" value="" style="edgeStyle=orthogonalEdgeStyle;rounded=0;orthogonalLoop=1;jettySize=auto;html=1;" edge="1" parent="1" source="S4JOhIEXXyiDOe3BqFBM-37" target="S4JOhIEXXyiDOe3BqFBM-39">
          <mxGeometry relative="1" as="geometry" />
        </mxCell>
        <mxCell id="S4JOhIEXXyiDOe3BqFBM-44" value="" style="edgeStyle=orthogonalEdgeStyle;rounded=0;orthogonalLoop=1;jettySize=auto;html=1;" edge="1" parent="1" source="S4JOhIEXXyiDOe3BqFBM-37" target="S4JOhIEXXyiDOe3BqFBM-43">
          <mxGeometry relative="1" as="geometry" />
        </mxCell>
        <mxCell id="S4JOhIEXXyiDOe3BqFBM-37" value="stringArr[i] == String.Empty" style="rhombus;whiteSpace=wrap;html=1;" vertex="1" parent="1">
          <mxGeometry x="590" y="480" width="180" height="105" as="geometry" />
        </mxCell>
        <mxCell id="S4JOhIEXXyiDOe3BqFBM-42" style="edgeStyle=orthogonalEdgeStyle;rounded=0;orthogonalLoop=1;jettySize=auto;html=1;exitX=0.5;exitY=0;exitDx=0;exitDy=0;entryX=1;entryY=0.5;entryDx=0;entryDy=0;" edge="1" parent="1" source="S4JOhIEXXyiDOe3BqFBM-39" target="S4JOhIEXXyiDOe3BqFBM-33">
          <mxGeometry relative="1" as="geometry" />
        </mxCell>
        <mxCell id="S4JOhIEXXyiDOe3BqFBM-39" value="i++" style="rounded=0;whiteSpace=wrap;html=1;" vertex="1" parent="1">
          <mxGeometry x="820" y="502.5" width="120" height="60" as="geometry" />
        </mxCell>
        <mxCell id="S4JOhIEXXyiDOe3BqFBM-41" value="Yes" style="text;html=1;align=center;verticalAlign=middle;resizable=0;points=[];autosize=1;strokeColor=none;fillColor=none;" vertex="1" parent="1">
          <mxGeometry x="770" y="502.5" width="40" height="30" as="geometry" />
        </mxCell>
        <mxCell id="S4JOhIEXXyiDOe3BqFBM-49" style="edgeStyle=orthogonalEdgeStyle;rounded=0;orthogonalLoop=1;jettySize=auto;html=1;entryX=0.5;entryY=1;entryDx=0;entryDy=0;" edge="1" parent="1" source="S4JOhIEXXyiDOe3BqFBM-43" target="S4JOhIEXXyiDOe3BqFBM-39">
          <mxGeometry relative="1" as="geometry" />
        </mxCell>
        <mxCell id="S4JOhIEXXyiDOe3BqFBM-43" value="stringRes[k]=stringArr[i]&lt;br&gt;k++" style="rounded=0;whiteSpace=wrap;html=1;" vertex="1" parent="1">
          <mxGeometry x="610" y="630" width="140" height="60" as="geometry" />
        </mxCell>
        <mxCell id="S4JOhIEXXyiDOe3BqFBM-45" value="Yes" style="text;html=1;align=center;verticalAlign=middle;resizable=0;points=[];autosize=1;strokeColor=none;fillColor=none;" vertex="1" parent="1">
          <mxGeometry x="680" y="440" width="40" height="30" as="geometry" />
        </mxCell>
        <mxCell id="S4JOhIEXXyiDOe3BqFBM-48" value="No" style="text;html=1;align=center;verticalAlign=middle;resizable=0;points=[];autosize=1;strokeColor=none;fillColor=none;" vertex="1" parent="1">
          <mxGeometry x="680" y="585" width="40" height="30" as="geometry" />
        </mxCell>
        <mxCell id="S4JOhIEXXyiDOe3BqFBM-56" value="" style="edgeStyle=orthogonalEdgeStyle;rounded=0;orthogonalLoop=1;jettySize=auto;html=1;" edge="1" parent="1" source="S4JOhIEXXyiDOe3BqFBM-52" target="S4JOhIEXXyiDOe3BqFBM-53">
          <mxGeometry relative="1" as="geometry" />
        </mxCell>
        <mxCell id="S4JOhIEXXyiDOe3BqFBM-52" value="Print(stringRes)" style="shape=document;whiteSpace=wrap;html=1;boundedLbl=1;" vertex="1" parent="1">
          <mxGeometry x="750" y="230" width="120" height="80" as="geometry" />
        </mxCell>
        <mxCell id="S4JOhIEXXyiDOe3BqFBM-53" value="Finish" style="rounded=1;whiteSpace=wrap;html=1;" vertex="1" parent="1">
          <mxGeometry x="910" y="240" width="120" height="60" as="geometry" />
        </mxCell>
        <mxCell id="S4JOhIEXXyiDOe3BqFBM-55" value="No" style="text;html=1;align=center;verticalAlign=middle;resizable=0;points=[];autosize=1;strokeColor=none;fillColor=none;" vertex="1" parent="1">
          <mxGeometry x="680" y="300" width="40" height="30" as="geometry" />
        </mxCell>
      </root>
    </mxGraphModel>
  </diagram>
</mxfile>
